<svg xmlns="http://www.w3.org/2000/svg" width="768" height="768" fill="none"><path fill="#000" d="M296 198.406c0-18.317-.008-30.625-.781-40.094-.751-9.183-2.118-13.571-3.594-16.468a39.96 39.96 0 0 0-17.469-17.469c-2.897-1.476-7.285-2.843-16.468-3.594-9.469-.773-21.777-.781-40.094-.781h-19.188c-18.317 0-30.625.008-40.094.781-9.183.751-13.571 2.118-16.468 3.594a39.96 39.96 0 0 0-17.469 17.469c-1.476 2.897-2.843 7.285-3.594 16.468-.773 9.469-.781 21.777-.781 40.094v19.188c0 18.317.008 30.625.781 40.094.751 9.183 2.118 13.571 3.594 16.468a39.96 39.96 0 0 0 17.469 17.469c2.897 1.476 7.285 2.843 16.468 3.594 9.469.773 21.777.781 40.094.781h19.188c18.317 0 30.625-.008 40.094-.781 9.183-.751 13.571-2.118 16.468-3.594a39.96 39.96 0 0 0 17.469-17.469c1.476-2.897 2.843-7.285 3.594-16.468.773-9.469.781-21.777.781-40.094zm48 19.188c0 17.525.033 32.124-.938 44-.993 12.151-3.161 23.555-8.656 34.344a88.05 88.05 0 0 1-38.468 38.468c-10.789 5.495-22.193 7.663-34.344 8.656-11.876.971-26.475.938-44 .938h-19.188c-17.525 0-32.124.033-44-.938-12.151-.993-23.555-3.161-34.343-8.656a88.05 88.05 0 0 1-38.47-38.468c-5.494-10.789-7.663-22.193-8.656-34.344-.97-11.876-.937-26.475-.937-44v-19.188c0-17.525-.033-32.124.938-44 .992-12.151 3.161-23.555 8.656-34.343a88.04 88.04 0 0 1 38.469-38.47c10.788-5.494 22.192-7.663 34.343-8.656 11.876-.97 26.475-.937 44-.937h19.188c17.525 0 32.124-.033 44 .938 12.151.992 23.555 3.161 34.344 8.656a88.05 88.05 0 0 1 38.468 38.469c5.495 10.788 7.663 22.192 8.656 34.343.971 11.876.938 26.475.938 44zm-48 332.812c0-18.317-.008-30.625-.781-40.093-.751-9.184-2.118-13.572-3.594-16.469a39.96 39.96 0 0 0-17.469-17.469c-2.897-1.476-7.285-2.843-16.468-3.594-9.469-.773-21.777-.781-40.094-.781h-19.188c-18.317 0-30.625.008-40.094.781-9.183.751-13.571 2.118-16.468 3.594a39.96 39.96 0 0 0-17.469 17.469c-1.476 2.897-2.843 7.285-3.594 16.469-.773 9.468-.781 21.776-.781 40.093v19.188c0 18.317.008 30.625.781 40.094.751 9.183 2.118 13.571 3.594 16.468a39.96 39.96 0 0 0 17.469 17.469c2.897 1.476 7.285 2.843 16.468 3.594 9.469.773 21.777.781 40.094.781h19.188c18.317 0 30.625-.008 40.094-.781 9.183-.751 13.571-2.118 16.468-3.594a39.96 39.96 0 0 0 17.469-17.469c1.476-2.897 2.843-7.285 3.594-16.468.773-9.469.781-21.777.781-40.094zm48 19.188c0 17.525.033 32.124-.938 44-.993 12.151-3.161 23.555-8.656 34.344a88.05 88.05 0 0 1-38.468 38.468c-10.789 5.495-22.193 7.663-34.344 8.656-11.876.971-26.475.938-44 .938h-19.188c-17.525 0-32.124.033-44-.938-12.151-.993-23.555-3.161-34.343-8.656a88.05 88.05 0 0 1-38.47-38.468c-5.494-10.789-7.663-22.193-8.656-34.344-.97-11.876-.937-26.475-.937-44v-19.188c0-17.525-.033-32.124.938-44 .992-12.151 3.161-23.555 8.656-34.343a88.05 88.05 0 0 1 38.469-38.469c10.788-5.495 22.192-7.663 34.343-8.656 11.876-.971 26.475-.938 44-.938h19.188c17.525 0 32.124-.033 44 .938 12.151.993 23.555 3.161 34.344 8.656a88.05 88.05 0 0 1 38.468 38.469c5.495 10.788 7.663 22.192 8.656 34.343.971 11.876.938 26.475.938 44zm304-371.188c0-18.317-.008-30.625-.781-40.094-.751-9.183-2.118-13.571-3.594-16.468a39.96 39.96 0 0 0-17.469-17.469c-2.897-1.476-7.285-2.843-16.468-3.594-9.469-.773-21.777-.781-40.094-.781h-19.188c-18.317 0-30.625.008-40.093.781-9.184.751-13.572 2.118-16.469 3.594a39.96 39.96 0 0 0-17.469 17.469c-1.476 2.897-2.843 7.285-3.594 16.468-.773 9.469-.781 21.777-.781 40.094v19.188c0 18.317.008 30.625.781 40.094.751 9.183 2.118 13.571 3.594 16.468a39.96 39.96 0 0 0 17.469 17.469c2.897 1.476 7.285 2.843 16.469 3.594 9.468.773 21.776.781 40.093.781h19.188c18.317 0 30.625-.008 40.094-.781 9.183-.751 13.571-2.118 16.468-3.594a39.96 39.96 0 0 0 17.469-17.469c1.476-2.897 2.843-7.285 3.594-16.468.773-9.469.781-21.777.781-40.094zm48 19.188c0 17.525.033 32.124-.938 44-.993 12.151-3.161 23.555-8.656 34.344a88.05 88.05 0 0 1-38.468 38.468c-10.789 5.495-22.193 7.663-34.344 8.656-11.876.971-26.475.938-44 .938h-19.188c-17.525 0-32.124.033-44-.938-12.151-.993-23.555-3.161-34.343-8.656a88.05 88.05 0 0 1-38.469-38.468c-5.495-10.789-7.663-22.193-8.656-34.344-.971-11.876-.938-26.475-.938-44v-19.188c0-17.525-.033-32.124.938-44 .993-12.151 3.161-23.555 8.656-34.343a88.05 88.05 0 0 1 38.469-38.47c10.788-5.494 22.192-7.663 34.343-8.656 11.876-.97 26.475-.937 44-.937h19.188c17.525 0 32.124-.033 44 .938 12.151.992 23.555 3.161 34.344 8.656a88.05 88.05 0 0 1 38.468 38.469c5.495 10.788 7.663 22.192 8.656 34.343.971 11.876.938 26.475.938 44zm-48 332.812c0-18.317-.008-30.625-.781-40.093-.751-9.184-2.118-13.572-3.594-16.469a39.96 39.96 0 0 0-17.469-17.469c-2.897-1.476-7.285-2.843-16.468-3.594-9.469-.773-21.777-.781-40.094-.781h-19.188c-18.317 0-30.625.008-40.093.781-9.184.751-13.572 2.118-16.469 3.594a39.96 39.96 0 0 0-17.469 17.469c-1.476 2.897-2.843 7.285-3.594 16.469-.773 9.468-.781 21.776-.781 40.093v19.188c0 18.317.008 30.625.781 40.094.751 9.183 2.118 13.571 3.594 16.468a39.96 39.96 0 0 0 17.469 17.469c2.897 1.476 7.285 2.843 16.469 3.594 9.468.773 21.776.781 40.093.781h19.188c18.317 0 30.625-.008 40.094-.781 9.183-.751 13.571-2.118 16.468-3.594a39.96 39.96 0 0 0 17.469-17.469c1.476-2.897 2.843-7.285 3.594-16.468.773-9.469.781-21.777.781-40.094zm48 19.188c0 17.525.033 32.124-.938 44-.993 12.151-3.161 23.555-8.656 34.344a88.05 88.05 0 0 1-38.468 38.468c-10.789 5.495-22.193 7.663-34.344 8.656-11.876.971-26.475.938-44 .938h-19.188c-17.525 0-32.124.033-44-.938-12.151-.993-23.555-3.161-34.343-8.656a88.05 88.05 0 0 1-38.469-38.468c-5.495-10.789-7.663-22.193-8.656-34.344-.971-11.876-.938-26.475-.938-44v-19.188c0-17.525-.033-32.124.938-44 .993-12.151 3.161-23.555 8.656-34.343a88.05 88.05 0 0 1 38.469-38.469c10.788-5.495 22.192-7.663 34.343-8.656 11.876-.971 26.475-.938 44-.938h19.188c17.525 0 32.124-.033 44 .938 12.151.993 23.555 3.161 34.344 8.656a88.05 88.05 0 0 1 38.468 38.469c5.495 10.788 7.663 22.192 8.656 34.343.971 11.876.938 26.475.938 44z"/></svg>